<svg xmlns="http://www.w3.org/2000/svg" id="prefix__checked" width="50.023" height="50.023" viewBox="0 0 50.023 50.023">
    <defs>
        <style>
            .prefix__cls-1{fill:#05668D}
        </style>
    </defs>
    <g id="prefix__Group_189" data-name="Group 189" transform="translate(11.877 6.285)">
        <g id="prefix__Group_188" data-name="Group 188">
            <path id="prefix__Path_271" d="M158.283 64.881a1.885 1.885 0 0 0-2.666 0L133 87.436l-8.16-8.863a1.885 1.885 0 0 0-2.774 2.554l9.489 10.306a1.883 1.883 0 0 0 1.347.608h.04a1.887 1.887 0 0 0 1.331-.55l24.007-23.943a1.885 1.885 0 0 0 .003-2.667z" class="prefix__cls-1" data-name="Path 271" transform="translate(-121.568 -64.327)"/>
        </g>
    </g>
    <g id="prefix__Group_191" data-name="Group 191">
        <g id="prefix__Group_190" data-name="Group 190">
            <path id="prefix__Path_272" d="M48.138 23.126a1.885 1.885 0 0 0-1.885 1.885 21.241 21.241 0 1 1-21.241-21.24 1.885 1.885 0 1 0 0-3.771 25.012 25.012 0 1 0 25.011 25.012 1.885 1.885 0 0 0-1.885-1.886z" class="prefix__cls-1" data-name="Path 272"/>
        </g>
    </g>
</svg>
