<svg xmlns="http://www.w3.org/2000/svg" width="20.015" height="20.016" viewBox="0 0 20.015 20.016">
    <defs>
        <style>
            .prefix__cls-2{fill:#fff}
        </style>
    </defs>
    <g id="prefix__discount" transform="translate(-.01)">
        <path id="prefix__Path_46" d="M19.106 10.008l.878-2.29a.626.626 0 0 0-.19-.711l-1.9-1.544-.394-2.422a.625.625 0 0 0-.52-.519l-2.423-.385L13.019.231a.626.626 0 0 0-.709-.19L10.018.92 7.728.042a.624.624 0 0 0-.709.19L5.475 2.137l-2.423.385a.627.627 0 0 0-.519.519l-.386 2.424L.242 7.008a.626.626 0 0 0-.19.709l.878 2.29L.052 12.3a.624.624 0 0 0 .19.709l1.905 1.541.385 2.423a.625.625 0 0 0 .519.52l2.423.385 1.544 1.9a.622.622 0 0 0 .711.19l2.289-.877 2.29.878a.626.626 0 0 0 .711-.191l1.542-1.9 2.423-.385a.627.627 0 0 0 .52-.52l.385-2.423 1.9-1.542a.624.624 0 0 0 .19-.709z" data-name="Path 46" style="fill:#00A896"/>
        <g id="prefix__Group_58" data-name="Group 58" transform="translate(6.265 5.004)">
            <path id="prefix__Path_47" d="M161.9 131.788a1.876 1.876 0 1 1 1.876-1.876 1.879 1.879 0 0 1-1.876 1.876zm0-2.5a.625.625 0 1 0 .625.625.626.626 0 0 0-.625-.627z" class="prefix__cls-2" data-name="Path 47" transform="translate(-160.022 -128.034)"/>
            <path id="prefix__Path_48" d="M257.9 291.788a1.876 1.876 0 1 1 1.876-1.876 1.879 1.879 0 0 1-1.876 1.876zm0-2.5a.625.625 0 1 0 .625.625.627.627 0 0 0-.625-.627z" class="prefix__cls-2" data-name="Path 48" transform="translate(-252.269 -281.78)"/>
            <path id="prefix__Path_49" d="M160.661 138.025a.625.625 0 0 1-.508-.989l6.255-8.756a.626.626 0 0 1 1.018.727l-6.255 8.756a.628.628 0 0 1-.51.262z" class="prefix__cls-2" data-name="Path 49" transform="translate(-160.036 -128.017)"/>
        </g>
    </g>
</svg>
