<svg xmlns="http://www.w3.org/2000/svg" width="15.426" height="20.489" viewBox="0 0 15.426 20.489">
    <g id="prefix__fire" transform="translate(-63.168)">
        <path id="prefix__Path_38" d="M66.262 18.637a14.46 14.46 0 0 1-2.479-3.505 7.947 7.947 0 0 1-.47-4.574 9.865 9.865 0 0 1 1.966-4.232A4.077 4.077 0 0 0 66.3 9.319a7.111 7.111 0 0 1 1.624-5.9A12.219 12.219 0 0 1 73.144 0a4.213 4.213 0 0 0-.727 4.018 16.755 16.755 0 0 0 1.924 3.8 8.491 8.491 0 0 1 1.453 3.933 13.748 13.748 0 0 0 1.069-2.261 4.477 4.477 0 0 0 .171-2.479 6.357 6.357 0 0 1 1.411 3.078 12.935 12.935 0 0 1 .043 3.633 9.087 9.087 0 0 1-1.24 3.8 7.138 7.138 0 0 1-3.719 2.778 8.453 8.453 0 0 1-7.267-1.663z" data-name="Path 38" style="fill:#f3705a"/>
        <path id="prefix__Path_39" d="M153.784 227.051c3.505 1.368 6.968-2.778 5.044-5.984 0-.043-.043-.043-.043-.085a4.317 4.317 0 0 1-1.069 3.762 3.993 3.993 0 0 0-.385-3.249c-.513-.983-1.24-1.881-1.8-2.821a4.544 4.544 0 0 1-.727-3.206 5.637 5.637 0 0 0-2.052 3.163 5.722 5.722 0 0 0 .427 3.762 2.809 2.809 0 0 1-1.154-2.052 4.4 4.4 0 0 0-1.069 2.95 4.354 4.354 0 0 0 2.828 3.76z" data-name="Path 39" transform="translate(-84.274 -206.832)" style="fill:#ffd15c"/>
    </g>
</svg>
