<svg xmlns="http://www.w3.org/2000/svg" width="16" height="16" viewBox="0 0 16 16"><g transform="translate(-312 -629)"><rect width="16" height="16" transform="translate(312 629)" fill="#00a896" opacity="0"/><path d="M13.561-11.939l-1.621-1.621A1.723,1.723,0,0,0,10.879-14H5.5A1.5,1.5,0,0,0,4-12.5V-11H1.5A1.5,1.5,0,0,0,0-9.5V.5A1.5,1.5,0,0,0,1.5,2h7A1.5,1.5,0,0,0,10,.5V-1h2.5A1.5,1.5,0,0,0,14-2.5v-8.379A1.723,1.723,0,0,0,13.561-11.939ZM8.312.5H1.687A.188.188,0,0,1,1.5.312V-9.312A.188.188,0,0,1,1.687-9.5H4v7A1.5,1.5,0,0,0,5.5-1h3V.312A.188.188,0,0,1,8.312.5Zm4-3H5.687A.188.188,0,0,1,5.5-2.687v-9.625a.188.188,0,0,1,.188-.187H9v2.75A.75.75,0,0,0,9.75-9H12.5v6.312A.188.188,0,0,1,12.312-2.5Zm.188-8h-2v-2h.3a.188.188,0,0,1,.133.055l1.512,1.512a.215.215,0,0,1,.055.133h0Z" transform="translate(313 643)" fill="#05668d"/></g></svg>