<svg xmlns="http://www.w3.org/2000/svg" width="16" height="16" viewBox="0 0 16 16"><g transform="translate(20616 10053)"><rect width="16" height="16" transform="translate(-20616 -10053)" fill="#fff" opacity="0"/><path d="M5.964-11.208l-.541.541a.328.328,0,0,0,0,.464L9.664-5.961H.328A.328.328,0,0,0,0-5.633v.766a.328.328,0,0,0,.328.328H9.664L5.422-.3a.328.328,0,0,0,0,.464l.541.541a.328.328,0,0,0,.464,0l5.726-5.726a.328.328,0,0,0,0-.464L6.428-11.208A.328.328,0,0,0,5.964-11.208Z" transform="translate(-20614 -10039.695)" fill="#333"/></g></svg>