<svg xmlns="http://www.w3.org/2000/svg" width="20.248" height="20.078" viewBox="0 0 20.248 20.078">
    <defs>
        <style>
            .prefix__cls-2{fill:#e0b394}.prefix__cls-3{fill:#666}.prefix__cls-4{fill:#5e5e5e}.prefix__cls-5{fill:#4d4d4d}
        </style>
    </defs>
    <g id="prefix__icon_mom" transform="translate(-78.996)">
        <path id="prefix__Path_858" d="M135.153 39.025a15.109 15.109 0 0 1-1.038 1.764 4.985 4.985 0 0 1-1.32 1.425l-2.713 1.972a3.8 3.8 0 0 1-4.462 0l-2.713-1.972a5.006 5.006 0 0 1-1.317-1.419c-.183-.3-.418-.613-.648-.942a3.493 3.493 0 0 1-.858-2.167l.364-4.87c.324-3.355 4.033-6.477 7.4-6.477a7.046 7.046 0 0 1 4.662 1.98 7.256 7.256 0 0 1 2.378 4.5l.529 4.87a2.693 2.693 0 0 1-.264 1.336z" data-name="Path 858" transform="translate(-38.73 -24.833)" style="fill:#f7cba4"/>
        <g id="prefix__Group_633" data-name="Group 633" transform="translate(81.346 1.506)">
            <path id="prefix__Path_859" d="M135.222 47.953a3.02 3.02 0 0 0 .7 2.122l2.836 3.485a2.258 2.258 0 0 0 .5.443 3.773 3.773 0 0 1-.972-.51l-2.713-1.971a5 5 0 0 1-2.039-4.528l.47-4.87a6.542 6.542 0 0 1 6.415-5.912c-2.049.05-4.369 1.981-4.49 4.038z" class="prefix__cls-2" data-name="Path 859" transform="translate(-132.743 -35.646)"/>
            <path id="prefix__Path_860" d="M135.153 39.025c0-.11-.011-.22-.021-.33l-.479-4.955a6.641 6.641 0 0 0-.659-2.313 3.246 3.246 0 0 1-5.967.279 3.247 3.247 0 0 1-4.464 1.449 3.253 3.253 0 0 1-1.5-1.727 6.641 6.641 0 0 0-.659 2.313l-.479 4.955a5.089 5.089 0 0 0 .02 1.158 3.493 3.493 0 0 1-.858-2.167l.364-4.87c.324-3.355 4.033-6.477 7.4-6.477a7.046 7.046 0 0 1 4.662 1.98 7.256 7.256 0 0 1 2.378 4.5l.529 4.87a2.693 2.693 0 0 1-.267 1.335z" class="prefix__cls-2" data-name="Path 860" transform="translate(-120.076 -26.338)"/>
        </g>
        <path id="prefix__Path_861" d="M99.2 13.724a2.89 2.89 0 0 1-3.824 2.237 4.993 4.993 0 0 0 .723-3.109l-.471-4.87a6.523 6.523 0 0 0-.648-2.274 3.2 3.2 0 0 1-1.38 1.65 3.189 3.189 0 0 1-4.48-1.374 3.191 3.191 0 0 1-4.387 1.424 3.2 3.2 0 0 1-1.478-1.7 6.524 6.524 0 0 0-.648 2.274l-.471 4.87a4.993 4.993 0 0 0 .723 3.109 2.88 2.88 0 0 1-3.093-4.661 4.517 4.517 0 0 0 1.222-3.056v-.119A8.125 8.125 0 0 1 89.118 0a8.131 8.131 0 0 1 8.13 8.125v.114a4.517 4.517 0 0 0 1.226 3.061 2.867 2.867 0 0 1 .726 2.424z" class="prefix__cls-3" data-name="Path 861"/>
        <path id="prefix__Path_862" d="M84.733 11.541a3.2 3.2 0 0 1-1.478-1.7 6.524 6.524 0 0 0-.648 2.274l-.471 4.87a4.993 4.993 0 0 0 .724 3.115 2.88 2.88 0 0 1-3.093-4.666 4.517 4.517 0 0 0 1.222-3.056v-.114a8.132 8.132 0 0 1 6.121-7.88c-.068.057-4.182 3.489-2.377 7.157z" class="prefix__cls-4" data-name="Path 862" transform="translate(0 -4.133)"/>
        <path id="prefix__Path_863" d="M195.969 202.392a.5.5 0 0 1-.5-.5v-.792a.5.5 0 0 1 .992 0v.793a.5.5 0 0 1-.492.499z" class="prefix__cls-5" data-name="Path 863" transform="translate(-109.815 -189.134)"/>
        <g id="prefix__Group_634" data-name="Group 634" transform="translate(84.624 9.187)">
            <path id="prefix__Path_864" d="M282.947 161.881a.4.4 0 0 1-.28-.116 1.206 1.206 0 0 0-1.706 0 .4.4 0 0 1-.561-.561 2 2 0 0 1 2.828 0 .4.4 0 0 1-.281.677z" class="prefix__cls-3" data-name="Path 864" transform="translate(-274.398 -160.618)"/>
            <path id="prefix__Path_865" d="M180.053 161.9a.4.4 0 0 1-.28-.116 1.208 1.208 0 0 0-1.706 0 .4.4 0 0 1-.561-.561 2 2 0 0 1 2.828 0 .4.4 0 0 1-.28.677z" class="prefix__cls-3" data-name="Path 865" transform="translate(-177.389 -160.634)"/>
        </g>
        <g id="prefix__Group_635" data-name="Group 635" transform="translate(87.295 11.474)">
            <path id="prefix__Path_866" d="M298.863 202.392a.5.5 0 0 1-.5-.5v-.792a.5.5 0 0 1 .992 0v.793a.5.5 0 0 1-.492.499z" class="prefix__cls-5" data-name="Path 866" transform="translate(-294.119 -200.608)"/>
            <path id="prefix__Path_867" d="M224.1 285.261c.382.087.683.156.975.193a6.083 6.083 0 0 0 .826.058 6.226 6.226 0 0 0 .826-.059c.292-.037.593-.105.976-.191a1.546 1.546 0 0 1-.677.913 2.08 2.08 0 0 1-2.247 0 1.551 1.551 0 0 1-.679-.914z" class="prefix__cls-5" data-name="Path 867" transform="translate(-224.095 -280.419)"/>
        </g>
        <path id="prefix__Path_868" d="M246.425 208.889l.861-.229a.5.5 0 0 0 .352-.608l-.586-2.2" class="prefix__cls-2" data-name="Path 868" transform="translate(-157.853 -194.077)"/>
        <path id="prefix__Path_870" d="M260.476 89.936A3.189 3.189 0 0 1 256 88.562v-.974a4.785 4.785 0 0 0 4.476 2.348z" class="prefix__cls-4" data-name="Path 870" transform="translate(-166.88 -82.578)"/>
    </g>
</svg>
