<svg xmlns="http://www.w3.org/2000/svg" width="18" height="11.25" viewBox="0 0 18 11.25"><path d="M1.935-6.431h-5.31V-4.5H-.183A3.047,3.047,0,0,1-3.375-2.072,3.521,3.521,0,0,1-6.859-5.625,3.521,3.521,0,0,1-3.375-9.178a3.158,3.158,0,0,1,2.241.867L.393-9.777A5.373,5.373,0,0,0-3.375-11.25,5.623,5.623,0,0,0-9-5.625,5.623,5.623,0,0,0-3.375,0a5.189,5.189,0,0,0,5.4-5.495A4.771,4.771,0,0,0,1.935-6.431Zm5.432.189V-7.875H5.727v1.633H4.094V-4.6H5.727v1.633H7.367V-4.6H9V-6.242Z" transform="translate(9 11.25)" fill="#fff"/></svg>