<svg xmlns="http://www.w3.org/2000/svg" width="12.594" height="12.594" viewBox="0 0 12.594 12.594"><path d="M6.5-2.742a.711.711,0,0,0-.711.711A.711.711,0,0,0,6.5-1.32a.711.711,0,0,0,.711-.711A.711.711,0,0,0,6.5-2.742Zm.195-.609a.3.3,0,0,0,.3-.3v-.01C7-4.772,8.966-4.681,8.966-6.393A2.208,2.208,0,0,0,6.492-8.43,2.664,2.664,0,0,0,4.175-7.294a.3.3,0,0,0,.067.436l.333.232a.3.3,0,0,0,.413-.06,1.678,1.678,0,0,1,1.5-.729C7.5-7.414,7.95-6.9,7.95-6.393c0,1.112-1.966.941-1.966,2.727v.01a.3.3,0,0,0,.3.3ZM6.5-10.359a5.485,5.485,0,0,1,5.484,5.484A5.483,5.483,0,0,1,6.5.609,5.483,5.483,0,0,1,1.016-4.875,5.484,5.484,0,0,1,6.5-10.359Zm0-.812a6.3,6.3,0,0,0-6.3,6.3,6.3,6.3,0,0,0,6.3,6.3,6.3,6.3,0,0,0,6.3-6.3A6.3,6.3,0,0,0,6.5-11.172Z" transform="translate(-0.203 11.172)" fill="#333"/></svg>