<svg xmlns="http://www.w3.org/2000/svg" width="11.027" height="13.123" viewBox="0 0 11.027 13.123"><path d="M3.712-5.253A2.735,2.735,0,0,1,5.177-7.737,3.148,3.148,0,0,0,2.7-9.044C1.655-9.126.519-8.437.1-8.437a20.059,20.059,0,0,0-2.238-.577c-1.635.026-3.372,1.3-3.372,3.9a7.3,7.3,0,0,0,.422,2.379C-4.711-1.658-3.357.979-1.945.935-1.207.917-.686.41.275.41c.932,0,1.415.524,2.238.524C3.937.914,5.162-1.482,5.52-2.561A2.9,2.9,0,0,1,3.712-5.253ZM2.054-10.063a2.759,2.759,0,0,0,.7-2.124A3.107,3.107,0,0,0,.768-11.165a2.8,2.8,0,0,0-.75,2.106A2.46,2.46,0,0,0,2.054-10.063Z" transform="translate(5.508 12.188)" fill="#fff"/></svg>