<svg xmlns="http://www.w3.org/2000/svg" width="16" height="16" viewBox="0 0 16 16"><path d="M468.795,152.632l-.933.187v-2.75l.933.187a.55.55,0,0,1,.442.539v1.3A.55.55,0,0,1,468.795,152.632Z" transform="translate(-453.237 -145.376)" fill="#d7deed"/><path d="M468.795,189.1l-.933.187v.825l.933-.187a.55.55,0,0,0,.442-.539v-.825A.55.55,0,0,1,468.795,189.1Z" transform="translate(-453.237 -182.666)" fill="#c7cfe2"/><path d="M.825,136.264H.55a.55.55,0,0,1-.55-.55v-2.75a.55.55,0,0,1,.55-.55H.825v3.85Z" transform="translate(0 -128.272)" fill="#be4b50"/><path d="M229.517,11.578v6.05a11.745,11.745,0,0,1,7.15,2.75V8.828A11.745,11.745,0,0,1,229.517,11.578Z" transform="translate(-222.317 -8.553)" fill="#d7deed"/><g transform="translate(14.35)"><path d="M459.584,12.1h-.275a.275.275,0,0,1-.275-.275V.275A.275.275,0,0,1,459.309,0h.275a.275.275,0,0,1,.275.275V11.824A.275.275,0,0,1,459.584,12.1Z" transform="translate(-459.034)" fill="#959cb3"/></g><path d="M101.618,297.635h0a.275.275,0,0,1-.27-.221l-1.221-6.1H97.1l1.242,6.212a.825.825,0,0,0,.809.663h2.464a.275.275,0,1,0,0-.55Z" transform="translate(-94.064 -282.185)" fill="#d2555a"/><path d="M57.915,291.31v.317a.275.275,0,0,1-.23.271l-4.4.733a.275.275,0,0,1-.32-.271v-1.05Z" transform="translate(-51.315 -282.204)" fill="#be4b50"/><path d="M24.256,103.154h-5.5a1.1,1.1,0,0,1-1.1-1.1V98.2a1.1,1.1,0,0,1,1.1-1.1h5.5v6.05Z" transform="translate(-17.106 -94.064)" fill="#ff6464"/><rect width="0.55" height="6.05" transform="translate(6.621 3.04)" fill="#959cb3"/><path d="M17.655,229.517H23.7v1.925h-4.95a1.1,1.1,0,0,1-1.1-1.1v-.825Z" transform="translate(-17.105 -222.341)" fill="#d2555a"/><rect width="0.55" height="1.925" transform="translate(6.621 7.176)" fill="#707487"/><path d="M229.517,231.442a11.745,11.745,0,0,1,7.15,2.75v-3.3a20.948,20.948,0,0,0-7.15-1.375Z" transform="translate(-222.317 -222.335)" fill="#c7cfe2"/><path d="M459.584,273.93h-.275a.275.275,0,0,1-.275-.275v3.3a.275.275,0,0,0,.275.275h.275a.275.275,0,0,0,.275-.275v-3.3A.275.275,0,0,1,459.584,273.93Z" transform="translate(-444.684 -265.095)" fill="#707487"/></svg>