<svg xmlns="http://www.w3.org/2000/svg" width="16" height="16" viewBox="0 0 16 16"><g transform="translate(4690 6965)"><rect width="16" height="16" transform="translate(-4690 -6965)" fill="#d6d6d6" opacity="0"/><path d="M5.734-3.732A3.335,3.335,0,0,1,7.52-6.761,3.838,3.838,0,0,0,4.494-8.355c-1.268-.1-2.654.739-3.161.739-.536,0-1.765-.7-2.729-.7-1.993.032-4.111,1.59-4.111,4.758a8.9,8.9,0,0,0,.514,2.9C-4.536.651-2.886,3.865-1.164,3.812c.9-.021,1.536-.639,2.708-.639,1.136,0,1.725.639,2.729.639C6.009,3.787,7.5.865,7.937-.45A3.541,3.541,0,0,1,5.734-3.732ZM3.712-9.6a3.364,3.364,0,0,0,.857-2.59,3.788,3.788,0,0,0-2.425,1.247,3.417,3.417,0,0,0-.914,2.568A3,3,0,0,0,3.712-9.6Z" transform="translate(-4683.492 -6952.813)"/></g></svg>