<svg xmlns="http://www.w3.org/2000/svg" width="16" height="16" viewBox="0 0 16 16"><g transform="translate(-327 -491)"><rect width="16" height="16" transform="translate(327 491)" fill="#fff" opacity="0"/><path d="M3.125-2.819a.215.215,0,0,0-.063.153v3.1H-6.563V-9.187h6.6A.217.217,0,0,0,.2-9.25l.875-.875A.22.22,0,0,0,.916-10.5H-6.563A1.313,1.313,0,0,0-7.875-9.187V.437A1.313,1.313,0,0,0-6.563,1.75H3.062A1.313,1.313,0,0,0,4.375.437V-3.538A.22.22,0,0,0,4-3.694ZM7.407-8.337a1.6,1.6,0,0,0,0-2.264L6.223-11.782a1.6,1.6,0,0,0-2.261,0L-3.218-4.6-3.492-2.13A1.13,1.13,0,0,0-2.245-.883L.227-1.157Zm-2.7.845L-.377-2.412l-1.786.2L-1.963-4l5.08-5.083ZM6.478-9.671a.291.291,0,0,1,0,.407l-.845.845L4.047-10.008l.845-.845a.286.286,0,0,1,.4,0Z" transform="translate(334.875 504.252)" fill="#05668d"/></g></svg>