<svg xmlns="http://www.w3.org/2000/svg" width="14.531" height="14.531" viewBox="0 0 14.531 14.531"><path d="M7.5-12.891A7.267,7.267,0,0,0,.234-5.625,7.265,7.265,0,0,0,7.5,1.641a7.265,7.265,0,0,0,7.266-7.266A7.267,7.267,0,0,0,7.5-12.891Zm0,3.223a1.23,1.23,0,0,1,1.23,1.23A1.23,1.23,0,0,1,7.5-7.207a1.23,1.23,0,0,1-1.23-1.23A1.23,1.23,0,0,1,7.5-9.668ZM9.141-2.227a.352.352,0,0,1-.352.352H6.211a.352.352,0,0,1-.352-.352v-.7a.352.352,0,0,1,.352-.352h.352V-5.156H6.211a.352.352,0,0,1-.352-.352v-.7a.352.352,0,0,1,.352-.352H8.086a.352.352,0,0,1,.352.352v2.93h.352a.352.352,0,0,1,.352.352Z" transform="translate(-0.234 12.891)" fill="#666"/></svg>