<svg xmlns="http://www.w3.org/2000/svg" width="16" height="16" viewBox="0 0 16 16"><g transform="translate(4715 7061)"><rect width="16" height="16" transform="translate(-4715 -7061)" fill="#d6d6d6" opacity="0"/><path d="M8.734-4.842a8.023,8.023,0,0,0-8-8.049,8.023,8.023,0,0,0-8,8.049A8.037,8.037,0,0,0-.516,3.109V-2.515H-2.548V-4.842H-.516V-6.615A2.832,2.832,0,0,1,2.506-9.746,12.241,12.241,0,0,1,4.3-9.589v1.98H3.288a1.16,1.16,0,0,0-1.3,1.257v1.511H4.2L3.848-2.515H1.984V3.109A8.037,8.037,0,0,0,8.734-4.842Z" transform="translate(-4707.734 -7048.109)" fill="#3b5998"/></g></svg>