<svg xmlns="http://www.w3.org/2000/svg" width="24" height="24" viewBox="0 0 24 24"><g transform="translate(-328 -432)"><rect width="24" height="24" transform="translate(328 432)" fill="#dedede" opacity="0"/><path d="M5-5a3.734,3.734,0,0,0-2.336.816l-4-2.5A4.536,4.536,0,0,0-1.25-7.5a4.536,4.536,0,0,0-.089-.814l4-2.5A3.734,3.734,0,0,0,5-10a3.75,3.75,0,0,0,3.75-3.75A3.75,3.75,0,0,0,5-17.5a3.75,3.75,0,0,0-3.75,3.75,3.761,3.761,0,0,0,.089.814l-4,2.5A3.734,3.734,0,0,0-5-11.25,3.75,3.75,0,0,0-8.75-7.5,3.75,3.75,0,0,0-5-3.75a3.734,3.734,0,0,0,2.336-.816l4,2.5a4.524,4.524,0,0,0-.089.813h0A3.75,3.75,0,0,0,5,2.5,3.75,3.75,0,0,0,8.75-1.25,3.75,3.75,0,0,0,5-5Z" transform="translate(339.75 451.5)" fill="#fff"/></g></svg>