<svg xmlns="http://www.w3.org/2000/svg" width="24" height="24" viewBox="0 0 24 24"><g transform="translate(17525 -5580)"><path d="M10.5-9a6,6,0,0,0,6-6,6,6,0,0,0-6-6,6,6,0,0,0-6,6A6,6,0,0,0,10.5-9Zm4.2,1.5h-.783a8.169,8.169,0,0,1-3.417.75A8.185,8.185,0,0,1,7.083-7.5H6.3A6.3,6.3,0,0,0,0-1.2V.75A2.251,2.251,0,0,0,2.25,3h16.5A2.251,2.251,0,0,0,21,.75V-1.2A6.3,6.3,0,0,0,14.7-7.5Z" transform="translate(-17523 5601)" fill="#fff"/><rect width="24" height="24" transform="translate(-17525 5580)" fill="#fff" opacity="0"/></g></svg>