<svg xmlns="http://www.w3.org/2000/svg" width="16" height="16" viewBox="0 0 16 16"><g transform="translate(-825 -416)"><rect width="16" height="16" transform="translate(825 416)" fill="#c7c7c7" opacity="0"/><path d="M-.3-8.037C-1-7.494-1.928-6.8-5.116-4.484-5.75-4.022-6.884-2.987-8-3-9.109-2.991-10.222-4-10.881-4.484-14.069-6.8-15-7.491-15.7-8.034a.187.187,0,0,0-.3.147V-1.5A1.5,1.5,0,0,0-14.5,0h13A1.5,1.5,0,0,0,0-1.5V-7.891A.188.188,0,0,0-.3-8.037ZM-8-4c.725.013,1.769-.913,2.294-1.294C-1.559-8.3-1.244-8.566-.288-9.316A.748.748,0,0,0,0-9.906V-10.5A1.5,1.5,0,0,0-1.5-12h-13A1.5,1.5,0,0,0-16-10.5v.594a.752.752,0,0,0,.288.591c.956.747,1.272,1.012,5.419,4.022C-9.769-4.912-8.725-3.987-8-4Z" transform="translate(841 430)" fill="#fff"/></g></svg>