<svg xmlns="http://www.w3.org/2000/svg" width="24" height="24" viewBox="0 0 24 24"><g transform="translate(-1014 -432)"><rect width="24" height="24" transform="translate(1014 432)" fill="#dedede" opacity="0"/><path d="M2.547-8.383-1.672-9.617A1.155,1.155,0,0,1-2.5-10.723a1.152,1.152,0,0,1,1.152-1.152h2.59a2.384,2.384,0,0,1,1.336.41.609.609,0,0,0,.762-.078L4.7-12.871a.633.633,0,0,0-.07-.957A5.523,5.523,0,0,0,1.25-15v-1.875A.627.627,0,0,0,.625-17.5H-.625a.627.627,0,0,0-.625.625V-15h-.1a4.28,4.28,0,0,0-4.258,4.672A4.472,4.472,0,0,0-2.332-6.555l4,1.172A1.159,1.159,0,0,1,2.5-4.277,1.152,1.152,0,0,1,1.348-3.125h-2.59a2.384,2.384,0,0,1-1.336-.41.609.609,0,0,0-.762.078L-4.7-2.129a.633.633,0,0,0,.07.957A5.523,5.523,0,0,0-1.25,0V1.875A.627.627,0,0,0-.625,2.5H.625a.627.627,0,0,0,.625-.625V-.008a4.412,4.412,0,0,0,4.129-2.84A4.289,4.289,0,0,0,2.547-8.383Z" transform="translate(1025.624 451.5)" fill="#fff"/></g></svg>