<svg xmlns="http://www.w3.org/2000/svg" width="24" height="24" viewBox="0 0 24 24"><g transform="translate(-671 -432)"><rect width="24" height="24" transform="translate(671 432)" fill="#dedede" opacity="0"/><path d="M9.38-5.73l1.847-8.125A.938.938,0,0,0,10.312-15H-5.031l-.358-1.75a.938.938,0,0,0-.918-.75h-4.005a.937.937,0,0,0-.937.937v.625a.937.937,0,0,0,.937.937h2.73L-4.839-1.585a2.186,2.186,0,0,0-1.1,1.9A2.188,2.188,0,0,0-3.75,2.5,2.188,2.188,0,0,0-1.563.312,2.18,2.18,0,0,0-2.22-1.25H5.97a2.187,2.187,0,1,0,2.484-.406L8.669-2.6A.938.938,0,0,0,7.755-3.75H-2.73L-2.985-5H8.465A.937.937,0,0,0,9.38-5.73Z" transform="translate(683 452)" fill="#fff"/></g></svg>