<svg xmlns="http://www.w3.org/2000/svg" width="24" height="24" viewBox="0 0 24 24"><g transform="translate(-202 -114)"><rect width="24" height="24" transform="translate(202 114)" fill="#fff" opacity="0"/><path d="M17.859-7.49a.87.87,0,0,0,0-1.222l-6.037-6.037a.864.864,0,0,0-1.473.611v3.45H5.462a.86.86,0,0,0-.862.862v3.45a.86.86,0,0,0,.862.862h4.887v3.45a.864.864,0,0,0,1.473.611ZM6.9-1.633V-3.07A.432.432,0,0,0,6.468-3.5H3.45A1.149,1.149,0,0,1,2.3-4.651v-6.9A1.149,1.149,0,0,1,3.45-12.7H6.468a.432.432,0,0,0,.431-.431v-1.437A.432.432,0,0,0,6.468-15H3.45A3.45,3.45,0,0,0,0-11.55v6.9A3.45,3.45,0,0,0,3.45-1.2H6.468A.432.432,0,0,0,6.9-1.633Z" transform="translate(204.76 133.6)" fill="#333"/></g></svg>