<svg xmlns="http://www.w3.org/2000/svg" width="20" height="20.001" viewBox="0 0 20 20.001"><g transform="translate(-0.01 0)"><path d="M19.091,10l.877-2.289a.626.626,0,0,0-.19-.71l-1.9-1.542-.385-2.421a.625.625,0,0,0-.52-.519L14.55,2.135,13.009.231A.626.626,0,0,0,12.3.041L10.01.92,7.722.042a.623.623,0,0,0-.709.19l-1.542,1.9-2.421.385a.626.626,0,0,0-.519.519L2.146,5.461.242,7a.625.625,0,0,0-.19.709L.929,10,.052,12.289A.623.623,0,0,0,.242,13l1.9,1.541.385,2.421a.625.625,0,0,0,.519.52l2.421.385,1.542,1.9a.622.622,0,0,0,.71.19l2.287-.876,2.289.877a.625.625,0,0,0,.71-.191l1.541-1.9,2.421-.385a.626.626,0,0,0,.52-.52l.385-2.421L19.779,13a.624.624,0,0,0,.19-.709Z" transform="translate(0 0)" fill="#f44336"/><g transform="translate(6.261 5)"><path d="M161.9,131.785a1.875,1.875,0,1,1,1.875-1.875A1.877,1.877,0,0,1,161.9,131.785Zm0-2.5a.625.625,0,1,0,.625.625A.625.625,0,0,0,161.9,129.285Z" transform="translate(-160.022 -128.034)" fill="#fafafa"/><path d="M257.9,291.785a1.875,1.875,0,1,1,1.875-1.875A1.877,1.877,0,0,1,257.9,291.785Zm0-2.5a.625.625,0,1,0,.625.625A.627.627,0,0,0,257.9,289.285Z" transform="translate(-252.272 -281.785)" fill="#fafafa"/><path d="M160.661,138.018a.625.625,0,0,1-.507-.989l6.25-8.75a.625.625,0,0,1,1.017.726l-6.25,8.75A.628.628,0,0,1,160.661,138.018Z" transform="translate(-160.036 -128.017)" fill="#fafafa"/></g></g></svg>