<svg xmlns="http://www.w3.org/2000/svg" width="32.366" height="29.989" viewBox="0 0 32.366 29.989">
    <defs>
        <style>
            .prefix__cls-2{fill:#fff;opacity:.2}.prefix__cls-5{fill:#f3722c}
        </style>
    </defs>
    <g id="prefix__icon_combo" transform="translate(0 -18.781)">
        <path id="prefix__Path_1351" fill="#4ec1f5" d="M152.283 24.669l-5.1-.867-2.4-4.585-2.4 4.585-5.1.867 3.618 3.7-.752 5.121 4.634-2.3 4.634 2.3-.752-5.121z" data-name="Path 1351" transform="translate(-128.599 -.408)"/>
        <path id="prefix__Path_1352" d="M263.5 24.669l-5.1-.867-2.4-4.585V31.2l4.634 2.3-.752-5.121z" class="prefix__cls-2" data-name="Path 1352" transform="translate(-239.818 -.408)"/>
        <path id="prefix__Path_1353" fill="#f90" d="M9.08 142.6l1.652-3.56-3.867.67-2.877-2.67-.559 3.886L0 142.834l3.523 1.732.756 3.852 2.736-2.818 3.9.471z" data-name="Path 1353" transform="translate(0 -110.782)"/>
        <path id="prefix__Path_1354" d="M68.189 142.6l1.652-3.56-3.867.67-2.874-2.67 3.027 8.564 3.9.471z" class="prefix__cls-2" data-name="Path 1354" transform="translate(-59.11 -110.782)"/>
        <path id="prefix__Path_1355" fill="#dc001e" d="M346.848 140.925l-.559-3.886-2.876 2.672-3.868-.67 1.652 3.56-1.832 3.472 3.9-.471L346 148.42l.756-3.852 3.523-1.732z" data-name="Path 1355" transform="translate(-317.912 -110.782)"/>
        <path id="prefix__Path_1356" d="M404.6 140.925l-.559-3.886-3.027 8.564 2.736 2.817.756-3.852 3.523-1.732z" class="prefix__cls-2" data-name="Path 1356" transform="translate(-375.67 -110.782)"/>
        <g id="prefix__Group_1643" data-name="Group 1643" transform="translate(7.206 34.955)">
            <path id="prefix__Path_1357" d="M213.921 274.651h-1.943v13.812h1.943z" class="prefix__cls-5" data-name="Path 1357" transform="translate(-205.785 -274.651)"/>
            <path id="prefix__Path_1359" d="M116.026 295.585l-.233-.522-1.776.789.233.523a27.614 27.614 0 0 1 2.053 6.981l.96-.149.96-.149a29.553 29.553 0 0 0-2.2-7.471z" class="prefix__cls-5" data-name="Path 1359" transform="translate(-114.018 -293.772)"/>
        </g>
        <g id="prefix__Group_1644" data-name="Group 1644" transform="translate(17.021 18.781)">
            <path id="prefix__Path_1361" d="M333.875 295.062l-.233.523a29.555 29.555 0 0 0-2.2 7.472l.96.149.96.149a27.612 27.612 0 0 1 2.054-6.981l.233-.523z" class="prefix__cls-5" data-name="Path 1361" transform="translate(-327.516 -277.598)"/>
            <path id="prefix__Rectangle_921" d="M0 0h1.943v13.814H0z" class="prefix__cls-5" data-name="Rectangle 921" transform="translate(0 16.174)"/>
            <path id="prefix__Rectangle_922" d="M0 0h1.9v1.9H0z" class="prefix__cls-5" data-name="Rectangle 922" transform="rotate(135 4.193 4.891)"/>
            <path id="prefix__Rectangle_923" d="M0 0h1.9v1.9H0z" class="prefix__cls-5" data-name="Rectangle 923" transform="rotate(135 2.313 1.743)"/>
        </g>
        <path id="prefix__Rectangle_924" fill="#ffe97f" d="M0 0h1.9v1.9H0z" data-name="Rectangle 924" transform="rotate(135 -1.3 13.622)"/>
    </g>
</svg>
