<svg xmlns="http://www.w3.org/2000/svg" width="24" height="24" viewBox="0 0 24 24"><path d="M297.277,508.668q-3.2.521-6.422.961Q294.078,509.189,297.277,508.668Zm0,0" transform="translate(-280.743 -488)" fill="#fff"/><path d="M302.4,507.793c-1.02.188-2.039.359-3.059.535C300.359,508.152,301.379,507.98,302.4,507.793Zm0,0" transform="translate(-287.023 -488)" fill="#fff"/><path d="M285.137,510.34q-3.744.422-7.527.742Q281.389,510.766,285.137,510.34Zm0,0" transform="translate(-268.545 -488)" fill="#fff"/><path d="M290.055,509.738c-1.2.16-2.406.309-3.609.449C287.648,510.047,288.855,509.9,290.055,509.738Zm0,0" transform="translate(-274.957 -488)" fill="#fff"/><path d="M309.367,506.41c-.9.191-1.8.383-2.7.566C307.566,506.793,308.469,506.6,309.367,506.41Zm0,0" transform="translate(-293.841 -488)" fill="#fff"/><path d="M326.664,502.113c-.727.207-1.453.4-2.18.605C325.211,502.516,325.938,502.32,326.664,502.113Zm0,0" transform="translate(-310.596 -488)" fill="#fff"/><path d="M321.434,503.543c-.789.207-1.582.418-2.375.617Q320.248,503.861,321.434,503.543Zm0,0" transform="translate(-305.52 -488)" fill="#fff"/><path d="M314.59,505.254c-.836.2-1.68.379-2.523.566C312.91,505.633,313.754,505.449,314.59,505.254Zm0,0" transform="translate(-298.911 -488)" fill="#fff"/><path d="M277.527,511.09q-2.021.17-4.047.3Q275.508,511.26,277.527,511.09Zm0,0" transform="translate(-262.738 -488)" fill="#fff"/><path d="M24,12A12,12,0,1,0,12,24l.211,0V14.656H9.633v-3h2.578V9.44a3.609,3.609,0,0,1,3.853-3.96,21.223,21.223,0,0,1,2.311.118v2.68H16.8c-1.244,0-1.485.591-1.485,1.459v1.914h2.975l-.388,3H15.312v8.881A12.006,12.006,0,0,0,24,12Zm0,0" fill="#fff"/><path d="M272.914,511.43q-4,.258-8.023.4Q268.916,511.693,272.914,511.43Zm0,0" transform="translate(-256.493 -488)" fill="#fff"/><path d="M264.754,511.836q-2.121.07-4.25.105Q262.631,511.906,264.754,511.836Zm0,0" transform="translate(-250.371 -488)" fill="#fff"/></svg>